# Blender 3.6.4
# www.blender.org
mtllib triangulos.mtl
o Cube
v -0.009658 2.920111 0.357486
v -0.009658 3.999836 -0.534561
v -1.000000 3.013950 -0.628400
v -0.009658 2.008835 -0.724069
v -0.009658 2.900882 0.355656
v -1.000000 2.994722 -0.630230
v -1.000000 3.015780 -0.647629
v -0.009658 4.001667 -0.553790
v -0.009658 3.109620 -1.633515
v -1.000000 2.996552 -0.649459
v -0.009658 3.090391 -1.635345
v -0.009658 2.010665 -0.743298
v 0.009658 2.920111 0.357486
v 1.000000 3.013950 -0.628400
v 0.009658 3.999836 -0.534561
v 1.000000 2.994721 -0.630230
v 0.009658 2.900882 0.355656
v 0.009658 2.008835 -0.724069
v 1.000000 3.015780 -0.647629
v 0.009658 3.109620 -1.633515
v 0.009658 4.001667 -0.553790
v 0.009658 2.010665 -0.743298
v 0.009658 3.090391 -1.635345
v 1.000000 2.996552 -0.649459
v -0.504829 3.062700 -1.140572
v -0.504829 3.043471 -1.142402
v 0.009658 2.009750 -0.733684
v 1.000000 2.995636 -0.639845
v -0.009658 4.000751 -0.544175
v -1.000000 3.014865 -0.638014
v 0.009658 4.000751 -0.544175
v 1.000000 3.014865 -0.638014
v -0.009658 2.009750 -0.733684
v -1.000000 2.995637 -0.639845
v -0.009658 2.454859 -0.184207
v 0.009658 2.454859 -0.184207
v -0.980020 3.018239 -0.624516
v -0.002333 3.111396 -1.603232
v 0.002333 2.925673 0.347993
v 0.980020 3.018830 -0.630724
vn -0.0000 -0.9955 -0.0948
vn 1.0000 -0.0000 -0.0000
vn -0.0000 0.0948 -0.9955
vn -0.0000 0.9955 0.0948
vn -1.0000 -0.0000 -0.0000
vn -0.5774 0.5200 0.6295
vn -0.5774 0.6295 -0.5200
vn 0.5774 0.5200 0.6295
vn 0.5774 0.6295 -0.5200
vn -0.7071 -0.0670 0.7039
vn 0.7071 0.0670 -0.7039
vn -0.7071 0.0670 -0.7039
vn 0.7071 -0.0670 0.7039
vn -0.0000 0.7709 -0.6369
vn -0.7071 0.7039 0.0670
vn 0.7071 0.7039 0.0670
vn -0.0000 0.6369 0.7709
vn -0.0000 -0.0948 0.9955
vt 0.248793 0.625000
vt 0.251207 0.625000
vt 0.251207 0.626207
vt 0.248793 0.626207
vt 0.498793 0.125000
vt 0.501207 0.125000
vt 0.501207 0.126207
vt 0.498793 0.126207
vt 0.498793 0.873793
vt 0.501207 0.873793
vt 0.501207 0.876207
vt 0.498793 0.876207
vt 0.748793 0.625000
vt 0.751207 0.625000
vt 0.751207 0.626207
vt 0.748793 0.626207
vt 0.498793 0.625000
vt 0.501207 0.625000
vt 0.501207 0.626207
vt 0.498793 0.626207
vt 0.501207 0.376207
vt 0.625000 0.376207
vt 0.501207 0.500000
vt 0.501207 0.750000
vt 0.625000 0.873793
vt 0.501207 0.811896
vt 0.501207 0.250000
vt 0.625000 0.126207
vt 0.501207 0.123793
vt 0.501207 0.000000
vt 0.625000 0.123793
vt 0.501207 0.623793
vt 0.498793 0.623793
vt 0.498793 0.376207
vt 0.498793 0.000000
vt 0.498793 0.123793
vt 0.498793 0.750000
vt 0.501207 0.373793
vt 0.498793 0.373793
vt 0.625000 0.876207
vt 0.625000 0.125000
vt 0.625000 0.373793
vt 0.748793 0.623793
vt 0.751207 0.623793
vt 0.248793 0.623793
vt 0.251207 0.623793
vt 0.000000 0.000000
vt 1.000000 0.000000
vt 1.000000 1.000000
vt 0.000000 1.000000
s 0
usemtl Material
f 27/1/1 33/2/1 12/3/1 22/4/1
f 28/5/2 32/6/2 14/7/2 16/8/2
f 11/9/3 9/10/3 20/11/3 23/12/3
f 29/13/4 31/14/4 21/15/4 8/16/4
f 34/17/5 30/18/5 7/19/5 10/20/5
f 1/21/6 2/22/6 3/23/6
f 7/24/7 8/25/7 9/10/7 25/26/7
f 13/27/8 14/7/8 15/28/8
f 19/29/9 20/30/9 21/31/9
f 3/32/10 6/33/10 5/34/10 1/21/10
f 23/35/11 20/30/11 19/29/11 24/36/11
f 25/24/12 26/37/12 10/20/12 7/19/12
f 13/38/13 17/39/13 16/8/13 14/7/13
f 8/25/14 21/40/14 20/11/14 9/10/14
f 29/13/15 8/16/15 7/19/15 30/18/15
f 31/41/16 15/28/16 14/7/16 32/6/16
f 15/42/17 2/22/17 1/21/17 13/38/17
f 17/39/18 13/38/18 1/21/18 5/34/18
f 9/10/12 11/9/12 26/37/12 25/24/12
f 21/31/16 31/41/16 32/6/16 19/29/16
f 2/43/15 29/13/15 30/18/15 3/32/15
f 6/33/5 3/32/5 30/18/5 34/17/5
f 2/43/4 15/44/4 31/14/4 29/13/4
f 24/36/2 19/29/2 32/6/2 28/5/2
f 18/45/1 4/46/1 33/2/1 27/1/1
usemtl Material.001
f 37/47/1 38/48/1 40/49/1 39/50/1
l 36 35
